<svg xmlns="http://www.w3.org/2000/svg" style="display: none;">
    <symbol id="pen-tool" width="24" height="24" viewBox="0 0 24 24" fill="none" stroke="currentColor" stroke-width="2" stroke-linecap="round" stroke-linejoin="round" class="lucide lucide-pen-tool-icon lucide-pen-tool"><path d="M15.707 21.293a1 1 0 0 1-1.414 0l-1.586-1.586a1 1 0 0 1 0-1.414l5.586-5.586a1 1 0 0 1 1.414 0l1.586 1.586a1 1 0 0 1 0 1.414z"/><path d="m18 13-1.375-6.874a1 1 0 0 0-.746-.776L3.235 2.028a1 1 0 0 0-1.207 1.207L5.35 15.879a1 1 0 0 0 .776.746L13 18"/><path d="m2.3 2.3 7.286 7.286"/><circle cx="11" cy="11" r="2"/></symbol>
    <symbol id="github" width="24" height="24" viewBox="0 0 24 24" fill="none" stroke="currentColor" stroke-width="2" stroke-linecap="round" stroke-linejoin="round" class="lucide lucide-github-icon lucide-github"><path d="M15 22v-4a4.8 4.8 0 0 0-1-3.5c3 0 6-2 6-5.5.08-1.25-.27-2.48-1-3.5.28-1.15.28-2.35 0-3.5 0 0-1 0-3 1.5-2.64-.5-5.36-.5-8 0C6 2 5 2 5 2c-.3 1.15-.3 2.35 0 3.5A5.403 5.403 0 0 0 4 9c0 3.5 3 5.5 6 5.5-.39.49-.68 1.05-.85 1.65-.17.6-.22 1.23-.15 1.85v4"/><path d="M9 18c-4.51 2-5-2-7-2"/></symbol>
    <symbol id="home" width="24" height="24" viewBox="0 0 24 24" fill="none" stroke="currentColor" stroke-width="2" stroke-linecap="round" stroke-linejoin="round" class="lucide lucide-house-icon lucide-house"><path d="M15 21v-8a1 1 0 0 0-1-1h-4a1 1 0 0 0-1 1v8"/><path d="M3 10a2 2 0 0 1 .709-1.528l7-5.999a2 2 0 0 1 2.582 0l7 5.999A2 2 0 0 1 21 10v9a2 2 0 0 1-2 2H5a2 2 0 0 1-2-2z"/></symbol>
    <symbol id="mail" width="24" height="24" viewBox="0 0 24 24" fill="none" stroke="currentColor" stroke-width="2" stroke-linecap="round" stroke-linejoin="round" class="lucide lucide-mail-icon lucide-mail"><path d="m22 7-8.991 5.727a2 2 0 0 1-2.009 0L2 7"/><rect x="2" y="4" width="20" height="16" rx="2"/></symbol>
    <symbol id="send" width="24" height="24" viewBox="0 0 24 24" fill="none" stroke="currentColor" stroke-width="2" stroke-linecap="round" stroke-linejoin="round" class="lucide lucide-send-icon lucide-send"><path d="M14.536 21.686a.5.5 0 0 0 .937-.024l6.5-19a.496.496 0 0 0-.635-.635l-19 6.5a.5.5 0 0 0-.024.937l7.93 3.18a2 2 0 0 1 1.112 1.11z"/><path d="m21.854 2.147-10.94 10.939"/></symbol>
    <symbol id="vk" width="24" height="24" viewBox="-1 -1 9 9" fill="none" stroke="currentColor" stroke-width="0.8" stroke-linecap="round" stroke-linejoin="round"><path fill="#ffffff" d="M4.818 6.757C2.382 6.757.992 5.063.934 2.243h1.22c.04 2.07.94 2.946 1.653 3.127V2.243h1.15v1.785c.703-.077 1.443-.89 1.692-1.785H7.8c-.192 1.102-.994 1.916-1.564 2.25.57.271 1.483.98 1.83 2.264H6.802c-.272-.858-.95-1.523-1.844-1.613v1.613z"/></symbol>
    <symbol id="ok" width="24" height="24" viewBox="-4 -4 36 36" fill="none" stroke="currentColor" stroke-width="3" stroke-linecap="round" stroke-linejoin="round"><path d="M19.339 23.255c1.703-0.391 3.323-1.061 4.801-1.989 1.111-0.744 1.412-2.244 0.667-3.359-0.713-1.068-2.14-1.391-3.244-0.735-3.401 2.125-7.724 2.125-11.125 0-1.125-0.713-2.62-0.375-3.333 0.749 0 0.005 0 0.005 0 0.005-0.713 1.131-0.375 2.625 0.756 3.333l0.004 0.005c1.475 0.928 3.095 1.599 4.792 1.985l-4.62 4.619c-0.943 0.928-0.957 2.437-0.036 3.381l0.041 0.041c0.459 0.473 1.079 0.708 1.699 0.708s1.239-0.235 1.697-0.708l4.563-4.537 4.536 4.543c0.964 0.921 2.495 0.9 3.423-0.063 0.905-0.937 0.905-2.423 0-3.36zM16 16.516c4.563-0.005 8.255-3.699 8.26-8.256 0-4.552-3.708-8.26-8.26-8.26s-8.26 3.708-8.26 8.26c0.005 4.563 3.703 8.256 8.26 8.261zM16 4.844c1.885 0 3.416 1.531 3.416 3.416 0 1.891-1.531 3.417-3.416 3.423-1.885-0.005-3.416-1.532-3.421-3.423 0.005-1.885 1.536-3.416 3.421-3.421z"/></symbol>
    <symbol id="linkedin" width="24" height="24" viewBox="0 0 24 24" fill="none" stroke="currentColor" stroke-width="2" stroke-linecap="round" stroke-linejoin="round" class="lucide lucide-linkedin-icon lucide-linkedin"><path d="M16 8a6 6 0 0 1 6 6v7h-4v-7a2 2 0 0 0-2-2 2 2 0 0 0-2 2v7h-4v-7a6 6 0 0 1 6-6z"/><rect width="4" height="12" x="2" y="9"/><circle cx="4" cy="4" r="2"/></symbol>
    <symbol id="results" width="24" height="24" viewBox="0 0 24 24" fill="none" stroke="currentColor" stroke-width="2" stroke-linecap="round" stroke-linejoin="round" class="lucide lucide-clipboard-clock-icon lucide-clipboard-clock"><path d="M16 14v2.2l1.6 1"/><path d="M16 4h2a2 2 0 0 1 2 2v.832"/><path d="M8 4H6a2 2 0 0 0-2 2v14a2 2 0 0 0 2 2h2"/><circle cx="16" cy="16" r="6"/><rect x="8" y="2" width="8" height="4" rx="1"/></symbol>
    <symbol id="notebook" width="24" height="24" viewBox="0 0 24 24" fill="none" stroke="currentColor" stroke-width="2" stroke-linecap="round" stroke-linejoin="round" class="lucide lucide-notebook-pen-icon lucide-notebook-pen"><path d="M13.4 2H6a2 2 0 0 0-2 2v16a2 2 0 0 0 2 2h12a2 2 0 0 0 2-2v-7.4"/><path d="M2 6h4"/><path d="M2 10h4"/><path d="M2 14h4"/><path d="M2 18h4"/><path d="M21.378 5.626a1 1 0 1 0-3.004-3.004l-5.01 5.012a2 2 0 0 0-.506.854l-.837 2.87a.5.5 0 0 0 .62.62l2.87-.837a2 2 0 0 0 .854-.506z"/></symbol>
</svg>
